<?xml version="1.0" standalone="no"?>
<!DOCTYPE svg PUBLIC "-//W3C//DTD SVG 1.1//EN" "http://www.w3.org/Graphics/SVG/1.1/DTD/svg11.dtd" >
<svg xmlns="http://www.w3.org/2000/svg" xmlns:xlink="http://www.w3.org/1999/xlink" version="1.1">
<metadata></metadata>
<defs>
<font id="kiaotflight" horiz-adv-x="559" vert-adv-y="1000" >
<font-face units-per-em="1000" ascent="800" descent="-200" />
<missing-glyph horiz-adv-x="500" />
<glyph horiz-adv-x="0" vert-adv-y="0" />
<glyph horiz-adv-x="333" />
<glyph horiz-adv-x="280" vert-adv-y="1200" />
<glyph unicode="!" horiz-adv-x="289" vert-adv-y="1200" d="M108 0v94h71v-94h-71zM110 728h71q-10 -407 -12 -512h-48z" />
<glyph unicode="&#x22;" horiz-adv-x="372" vert-adv-y="1200" d="M69 508v217h64v-217h-64zM240 508v217h64v-217h-64z" />
<glyph unicode="#" horiz-adv-x="610" vert-adv-y="1200" d="M31 234v57h124l25 153h-122v57h132l35 214h57l-35 -214h166l35 214h57l-35 -214h111v-57h-120l-25 -153h118v-57h-127l-36 -226h-57l36 226h-168l-37 -226h-57l37 226h-114zM212 291h167l25 153h-167z" />
<glyph unicode="$" horiz-adv-x="580" vert-adv-y="1200" d="M45 538q0 81 59 125q52 37 159 42v72h62v-72q32 -1 72 -8q43 -6 101 -22v-44q-67 12 -108 16q-21 3 -65 5v-256q59 -18 82 -26q65 -24 98 -59.5t33 -91.5q0 -102 -68 -152q-55 -40 -145 -46v-92h-62v91q-48 2 -88 8q-61 8 -116 24v46q112 -22 204 -23v276q-42 11 -84 26 q-134 48 -134 161zM112 541q0 -51 26.5 -77t86.5 -42q6 -2 19.5 -6t18.5 -5v241q-72 -3 -109 -26q-42 -27 -42 -85zM325 76q66 8 99 32q46 34 46 109q0 43 -28.5 68.5t-86.5 41.5q-13 5 -30 9v-260z" />
<glyph unicode="%" horiz-adv-x="883" vert-adv-y="1200" d="M48 529q0 89 44 143.5t114 54.5t113.5 -54t43.5 -144t-42.5 -140.5t-114.5 -50.5t-115 50.5t-43 140.5zM110 533q0 -144 96 -144t96 144q0 141 -96 141t-96 -141zM162 -16l483 755h69l-482 -755h-70zM521 190q0 89 44 143.5t114 54.5t113.5 -54t43.5 -144 q0 -89 -42.5 -140t-114.5 -51t-115 50.5t-43 140.5zM583 194q0 -144 96 -144t96 144q0 141 -96 141t-96 -141z" />
<glyph unicode="&#x26;" horiz-adv-x="663" vert-adv-y="1200" d="M43 185q0 135 171 218q-76 92 -76 166q0 82 49 122.5t127 40.5q76 0 120.5 -39t44.5 -109q0 -69 -44 -116t-123 -86l186 -217q42 71 54 178h46q-9 -133 -67 -217l102 -121h-76l-64 74q-80 -86 -204 -86q-116 0 -181 49.5t-65 142.5zM108 196q-2 -69 44.5 -109.5 t135.5 -39.5q104 2 172 70l-211 244q-137 -71 -141 -165zM201 574q0 -59 53 -123l23 -28q66 32 103.5 68t37.5 91q0 101 -105 101q-112 0 -112 -109z" />
<glyph unicode="'" horiz-adv-x="209" vert-adv-y="1200" d="M73 508v217h65v-217h-65z" />
<glyph unicode="(" horiz-adv-x="350" vert-adv-y="1200" d="M73 354q0 253 189 442h43q-76 -91 -122.5 -204t-46.5 -229v-9q0 -115 47.5 -233.5t121.5 -209.5h-43q-189 189 -189 443z" />
<glyph unicode=")" horiz-adv-x="350" vert-adv-y="1200" d="M46 -89q74 91 121.5 209.5t47.5 233.5v9q0 116 -46.5 229t-122.5 204h43q189 -189 189 -442q0 -254 -189 -443h-43z" />
<glyph unicode="*" horiz-adv-x="389" vert-adv-y="1200" d="M51 396l106 54l-103 53l22 43l104 -68l-6 128h45l-5 -128l100 68l23 -43l-105 -53l106 -54l-24 -41l-100 66l5 -125h-45l5 125l-102 -66z" />
<glyph unicode="+" horiz-adv-x="530" vert-adv-y="1200" d="M52 344v50h184v193h58v-193h184v-50h-184v-194h-58v194h-184z" />
<glyph unicode="," horiz-adv-x="260" vert-adv-y="1200" d="M52 -79l61 217h78l-87 -217h-52z" />
<glyph unicode="-" horiz-adv-x="530" vert-adv-y="1200" d="M70 343v55h390v-55h-390z" />
<glyph unicode="." horiz-adv-x="260" vert-adv-y="1200" d="M95 3v98h70v-98h-70z" />
<glyph unicode="/" horiz-adv-x="400" vert-adv-y="1200" d="M54 -76l240 859h64l-241 -859h-63z" />
<glyph unicode="0" horiz-adv-x="635" vert-adv-y="1200" d="M57 357q0 197 70 287t192 90q258 0 258 -377q0 -368 -259 -368q-261 0 -261 368zM130 357q0 -163 44.5 -238t143.5 -75t142.5 74.5t43.5 238.5q0 161 -44 241.5t-141 80.5q-100 0 -144.5 -80.5t-44.5 -241.5z" />
<glyph unicode="1" horiz-adv-x="420" vert-adv-y="1200" d="M74 639v49l208 49v-737h-69v663z" />
<glyph unicode="2" horiz-adv-x="560" vert-adv-y="1200" d="M60 0v67l174 163q87 87 130 157t43 137q0 81 -39 116t-140 35q-79 -1 -161 -22v47q102 32 176 32q120 0 178 -49t58 -151q0 -86 -45.5 -160t-150.5 -174l-152 -143h380l-21 -55h-430z" />
<glyph unicode="3" horiz-adv-x="543" vert-adv-y="1200" d="M35 21v45q104 -20 203 -20q95 0 138 36t45 110q0 90 -59.5 124t-175.5 34h-29v54h29q38 0 72 7t65.5 23.5t50 48t18.5 75.5q0 58 -35.5 86.5t-118.5 31.5q-105 0 -178 -21v46q99 31 178 31q224 0 224 -171q0 -128 -140 -177q170 -32 170 -192q-1 -202 -239 -202 q-107 0 -218 31z" />
<glyph unicode="4" horiz-adv-x="600" vert-adv-y="1200" d="M26 158v72l331 497h97v-514h141l-19 -55h-122v-158h-66v158h-362zM85 213h303v456z" />
<glyph unicode="5" horiz-adv-x="524" vert-adv-y="1200" d="M35 21v49q118 -24 204 -24q171 0 171 167q0 102 -46 137t-167 35q-66 0 -132 -6l18 348h385l-22 -54h-296l-13 -240q52 7 103 7q121 0 181.5 -55.5t60.5 -171.5q0 -109 -58 -165.5t-170 -56.5t-219 30z" />
<glyph unicode="6" horiz-adv-x="608" vert-adv-y="1200" d="M57 333q0 75 8.5 135t22.5 101.5t36 71.5t44.5 47t53 27t56.5 13t60 3q71 0 176 -28v-46q-97 22 -160 22q-16 0 -40 -2q-42 -5 -71.5 -17t-56 -39t-40.5 -78t-15 -125v-25q47 23 107 36t106 13q105 0 159 -53.5t54 -156.5q0 -112 -61 -177.5t-178 -65.5q-137 0 -199 86.5 t-62 257.5zM130 334q0 -75 7 -124t26.5 -89t57 -58.5t96.5 -18.5q94 0 131.5 45t37.5 133q0 96 -38 130t-132 34q-82 0 -186 -41v-11z" />
<glyph unicode="7" horiz-adv-x="530" vert-adv-y="1200" d="M37 667v57h456v-67l-313 -657h-73l320 667h-390z" />
<glyph unicode="8" horiz-adv-x="625" vert-adv-y="1200" d="M50 182q0 129 185 192q-163 69 -163 182q0 81 63.5 130.5t173.5 49.5t174 -49.5t64 -130.5q0 -59 -41 -105.5t-115 -76.5q185 -67 185 -192q0 -87 -70 -141t-196 -54q-121 0 -190.5 54t-69.5 141zM121 182q0 -66 50.5 -103.5t141.5 -37.5q93 0 143 39t50 102 q0 61 -55 105.5t-138 61.5q-85 -16 -138.5 -60.5t-53.5 -106.5zM144 556q0 -59 40.5 -93.5t129.5 -62.5q85 28 123 62t38 94q0 59 -41 92.5t-121 33.5q-82 0 -125.5 -34t-43.5 -92z" />
<glyph unicode="9" horiz-adv-x="612" vert-adv-y="1200" d="M57 478q0 117 61 185t178 68q137 0 199 -86.5t62 -257.5q0 -75 -8.5 -135t-22.5 -101.5t-36 -71.5t-44.5 -47t-53 -27t-56.5 -13t-60 -3q-71 0 -176 28v46q97 -22 160 -22q16 0 40 2q42 5 72 17t56 39.5t39.5 78t15.5 124.5v5q-47 -23 -107 -36t-106 -13 q-104 0 -158.5 58t-54.5 162zM128 488q0 -97 39 -135.5t131 -38.5q82 0 186 41v21q0 75 -7 125.5t-26.5 92.5t-57.5 62t-96 20q-94 0 -131.5 -48t-37.5 -140z" />
<glyph unicode=":" horiz-adv-x="267" vert-adv-y="1200" d="M102 137v96h66v-96h-66zM102 484v96h66v-96h-66z" />
<glyph unicode=";" horiz-adv-x="246" vert-adv-y="1200" d="M30 18l58 215h78l-84 -215h-52zM92 484v96h67v-96h-67z" />
<glyph unicode="&#x3c;" horiz-adv-x="530" vert-adv-y="1200" d="M76 336v64l378 239v-62l-331 -209l331 -209v-62z" />
<glyph unicode="=" horiz-adv-x="530" vert-adv-y="1200" d="M51 244v54h428v-54h-428zM51 440v53h428v-53h-428z" />
<glyph unicode="&#x3e;" horiz-adv-x="530" vert-adv-y="1200" d="M76 97v62l331 209l-331 209v62l378 -239v-64z" />
<glyph unicode="?" horiz-adv-x="470" vert-adv-y="1200" d="M50 677v45q101 32 177 32q85 0 140.5 -44.5t55.5 -128.5q0 -73 -24.5 -125.5t-81.5 -102.5q-4 -4 -19 -17t-18 -16.5t-14 -14t-13.5 -15t-9.5 -14.5t-8.5 -17t-3.5 -17t-2 -21v-40h-53v50q0 34 15.5 63.5t33 47.5t56.5 52q78 74 78 159q0 74 -36.5 110t-118.5 36 q-68 0 -154 -22zM167 0v94h71v-94h-71z" />
<glyph unicode="@" horiz-adv-x="912" vert-adv-y="1200" d="M58 188q0 90 28.5 172t82 148t138.5 105t190 39q161 0 258 -98t97 -252q0 -141 -58 -220t-162 -79q-43 0 -66.5 14.5t-33.5 48.5q-27 -27 -67.5 -45t-72.5 -18q-63 0 -98 43.5t-35 119.5q0 130 56 207t152 77q60 0 126 -52l3.5 21t4.5 21h57l-59 -322q-6 -57 47 -57 q69 0 107.5 60.5t38.5 173.5q0 138 -75.5 220.5t-220.5 82.5q-120 0 -207 -56.5t-128.5 -148t-41.5 -204.5q0 -151 85.5 -237t251.5 -86q94 0 218 42v-51q-125 -43 -219 -43q-189 0 -293 98t-104 276zM327 168q0 -50 23.5 -81t63.5 -31q55 0 119 56q20 107 45 245 q-17 14 -49.5 25.5t-59.5 11.5q-72 0 -107 -62t-35 -164z" />
<glyph unicode="A" horiz-adv-x="651" vert-adv-y="1200" d="M27 0l252 727h94l252 -727h-68l-68 197h-327l-67 -197h-68zM181 251h290l-145 423z" />
<glyph unicode="B" horiz-adv-x="643" vert-adv-y="1200" d="M76 0v727h273q115 0 165.5 -47t50.5 -145q-2 -111 -103 -160q60 -22 92.5 -62.5t32.5 -115.5q0 -197 -227 -197h-284zM144 54h220q151 0 151 143q0 145 -151 145h-220v-288zM144 396h198q151 0 151 139q0 74 -38.5 106t-112.5 32h-198v-277z" />
<glyph unicode="C" horiz-adv-x="581" vert-adv-y="1200" d="M57 363q0 371 279 371q109 0 205 -30v-46q-98 20 -186 20q-118 0 -172 -80t-54 -235q0 -312 227 -312q69 0 185 22v-48q-107 -30 -205 -30q-143 0 -211 98.5t-68 269.5z" />
<glyph unicode="D" horiz-adv-x="673" vert-adv-y="1200" d="M76 0v727h255q66 0 115 -16t80.5 -45t51 -73.5t27 -96t7.5 -119.5q0 -89 -12 -153.5t-42.5 -117.5t-87 -79.5t-139.5 -26.5h-255zM144 55h176q68 0 113 24.5t67.5 71.5t31 100t8.5 126q0 72 -8.5 121.5t-31 91t-67.5 62t-113 20.5h-176v-617z" />
<glyph unicode="E" horiz-adv-x="601" vert-adv-y="1200" d="M76 0v727h476v-55h-407v-276h390l-20 -56h-370v-285h407v-55h-476z" />
<glyph unicode="F" horiz-adv-x="572" vert-adv-y="1200" d="M76 0v727h457v-55h-389v-275h357l-20 -56h-337v-341h-68z" />
<glyph unicode="G" horiz-adv-x="682" vert-adv-y="1200" d="M56 365q0 369 284 369q118 0 221 -30v-46q-102 22 -183 22q-13 0 -25 -1q-118 -5 -171.5 -81t-53.5 -233q0 -316 225 -316q46 0 94 13q59 15 92 25v244h-222v54h290v-385h-68v40q-40 -17 -97 -32q-52 -13 -102 -13q-147 0 -215.5 98.5t-68.5 271.5z" />
<glyph unicode="H" horiz-adv-x="686" vert-adv-y="1200" d="M76 0v727h68v-329h398v329h68v-727h-68v341h-398v-341h-68z" />
<glyph unicode="I" horiz-adv-x="242" vert-adv-y="1200" d="M87 0v727h69v-727h-69z" />
<glyph unicode="J" horiz-adv-x="395" vert-adv-y="1200" d="M23 10v49q56 -11 120 -13q58 0 81 23.5t23 85.5v572h69v-588q0 -68 -30.5 -104.5t-99.5 -40.5q-7 -1 -16 -1q-23 0 -60 4q-53 5 -87 13z" />
<glyph unicode="K" horiz-adv-x="632" vert-adv-y="1200" d="M80 0v727h67v-332l362 332h85l-384 -357l389 -370h-88l-364 346v-346h-67z" />
<glyph unicode="L" horiz-adv-x="540" vert-adv-y="1200" d="M76 0v727h68v-672h368l-21 -55h-415z" />
<glyph unicode="M" horiz-adv-x="851" vert-adv-y="1200" d="M78 0v727h113l234 -646l236 646h112v-727h-64v669l-237 -641h-94l-235 641v-669h-65z" />
<glyph unicode="N" horiz-adv-x="702" vert-adv-y="1200" d="M78 0v727h103l379 -671v671h64v-727h-103l-380 668v-668h-63z" />
<glyph unicode="O" horiz-adv-x="687" vert-adv-y="1200" d="M57 359q0 190 65 282.5t220 92.5t221 -93t66 -282t-65.5 -276.5t-221.5 -87.5q-154 0 -219.5 88.5t-65.5 275.5zM129 359q0 -163 48 -236.5t165 -73.5q119 0 167.5 72.5t48.5 237.5q0 163 -49.5 242t-166.5 79q-116 0 -164.5 -78.5t-48.5 -242.5z" />
<glyph unicode="P" horiz-adv-x="642" vert-adv-y="1200" d="M76 0v727h282q229 0 229 -244q0 -248 -229 -248h-214v-235h-68zM144 290h201q170 0 170 193q0 189 -170 189h-201v-382z" />
<glyph unicode="Q" horiz-adv-x="687" vert-adv-y="1200" d="M57 359q0 190 65 282.5t220 92.5t221 -93t66 -282q0 -142 -35.5 -225t-116.5 -117q-9 -4 -20 -7l119 -146h-80l-107 133q-30 -2 -47 -2q-154 0 -219.5 88.5t-65.5 275.5zM129 359q0 -163 48 -236.5t165 -73.5q119 0 167.5 72.5t48.5 237.5q0 163 -49.5 242t-166.5 79 q-116 0 -164.5 -78.5t-48.5 -242.5z" />
<glyph unicode="R" horiz-adv-x="653" vert-adv-y="1200" d="M76 0v727h281q119 0 176 -55t57 -174q0 -122 -61 -177q-35 -31 -84 -45l155 -276h-77l-146 265h-21h-213v-265h-67zM143 320h201q174 0 174 178q0 90 -42.5 132t-130.5 42h-202v-352z" />
<glyph unicode="S" horiz-adv-x="589" vert-adv-y="1200" d="M49 552q0 86 62.5 134t187.5 48q102 -2 204 -33v-47q-125 25 -194 26q-191 0 -191 -126q0 -70 43 -99t159 -58q115 -31 168 -72.5t53 -120.5q1 -102 -67 -156q-65 -53 -178 -53h-8q-119 2 -227 32v48q146 -26 226 -26q95 0 139.5 37.5t44.5 115.5q0 57 -46.5 88 t-145.5 55q-115 29 -172.5 74.5t-57.5 132.5z" />
<glyph unicode="T" horiz-adv-x="647" vert-adv-y="1200" d="M28 671v56h601l-20 -56h-252v-671h-68v671h-261z" />
<glyph unicode="U" horiz-adv-x="676" vert-adv-y="1200" d="M76 225v502h69v-501q0 -89 51.5 -132t141.5 -43q193 0 193 175v501h69v-502q0 -120 -66 -175t-196 -55q-129 0 -195.5 55t-66.5 175z" />
<glyph unicode="V" horiz-adv-x="659" vert-adv-y="1200" d="M25 727h69l236 -674l235 674h69l-257 -727h-94z" />
<glyph unicode="W" horiz-adv-x="932" vert-adv-y="1200" d="M21 727h69l160 -672l170 672h94l170 -673l160 673h69l-183 -727h-93l-170 669l-170 -669h-93z" />
<glyph unicode="X" horiz-adv-x="640" vert-adv-y="1200" d="M26 727h78l216 -309l216 309h76l-254 -363l255 -364h-78l-216 309l-217 -309h-75l254 363z" />
<glyph unicode="Y" horiz-adv-x="642" vert-adv-y="1200" d="M26 727h75l221 -346l220 346h75l-260 -405v-322h-70v322z" />
<glyph unicode="Z" horiz-adv-x="596" vert-adv-y="1200" d="M61 671v56h469v-67l-396 -604h413l-21 -56h-458v68l396 603h-403z" />
<glyph unicode="[" horiz-adv-x="339" vert-adv-y="1200" d="M70 -82v871h229v-55h-167v-763h167v-53h-229z" />
<glyph unicode="\" horiz-adv-x="932" vert-adv-y="1200" d="M15 385v57h96l-60 285h69l55 -285h173l72 285h94l72 -285h173l55 285h69l-60 -285h95v-57h-107l-81 -385h-93l-98 385h-144l-98 -385h-93l-81 385h-108zM186 385l64 -330l83 330h-147zM409 442h115l-57 227zM600 385l84 -331l64 331h-148z" />
<glyph unicode="]" horiz-adv-x="339" vert-adv-y="1200" d="M40 -29h167v763h-167v55h229v-871h-229v53z" />
<glyph unicode="^" horiz-adv-x="567" vert-adv-y="1200" d="M60 414l190 348h62l195 -348h-61l-165 295l-160 -295h-61z" />
<glyph unicode="_" horiz-adv-x="547" vert-adv-y="1200" d="M41 -109h465v-49h-465v49z" />
<glyph unicode="`" horiz-adv-x="258" vert-adv-y="1200" d="M73 773h73l36 -217h-45z" />
<glyph unicode="a" vert-adv-y="1200" d="M47 147q0 59 26.5 98t91.5 60q70 23 255 23v27q0 78 -44.5 101t-151.5 23q-66 -2 -130 -13v46q93 19 183 19q96 0 154 -39t58 -116v-376h-65v54q-109 -61 -223 -61q-70 0 -112 40t-42 114zM120 154q0 -111 126 -111q86 0 174 57v184q-138 0 -213 -21q-44 -13 -65.5 -38.5 t-21.5 -70.5z" />
<glyph unicode="b" horiz-adv-x="574" vert-adv-y="1200" d="M71 0v733l69 20v-260q112 37 174 37q113 0 162.5 -68t49.5 -198t-49 -199.5t-163 -69.5q-70 0 -174 48v-43h-69zM140 92q107 -46 162 -46q87 0 119 56t32 162q0 102 -32.5 157t-118.5 55q-70 0 -162 -34v-350z" />
<glyph unicode="c" horiz-adv-x="477" vert-adv-y="1200" d="M47 264q0 125 57 196t171 71q75 0 159 -28v-43q-67 17 -131 17q-102 0 -144 -54t-42 -159q0 -112 42 -165.5t146 -53.5q64 0 137 18v-43q-78 -28 -169 -28q-113 0 -169.5 72t-56.5 200z" />
<glyph unicode="d" horiz-adv-x="574" vert-adv-y="1200" d="M49 264q0 130 49.5 198t162.5 68q62 0 174 -37v240l69 20v-753h-69v43q-104 -48 -174 -48q-114 0 -163 69.5t-49 199.5zM122 264q0 -106 32 -162t119 -56q55 0 162 46v350q-92 34 -162 34q-86 0 -118.5 -55t-32.5 -157z" />
<glyph unicode="e" vert-adv-y="1200" d="M48 257q0 274 237 274q226 0 226 -255q0 -34 -1 -47h-393q4 -97 41 -140.5t131 -43.5q107 0 200 26v-46q-96 -32 -210 -32q-123 0 -177 64t-54 200zM117 277h328q-2 107 -38.5 154.5t-121.5 47.5q-88 0 -125 -47t-43 -155z" />
<glyph unicode="f" horiz-adv-x="415" vert-adv-y="1200" d="M18 458v56h123v82q0 150 126 157q8 1 16 1q51 0 119 -21v-45q-54 13 -94 13q-59 0 -78.5 -23t-19.5 -80v-84h173v-56h-173v-458h-69v458h-123z" />
<glyph unicode="g" horiz-adv-x="571" vert-adv-y="1200" d="M48 278q0 126 50 187.5t164 61.5q75 -1 171 -50v48h68v-563q0 -77 -58 -116.5t-154 -39.5q-86 0 -179 19v49q75 -15 129 -15q106 0 150 23t44 101v79q-93 -43 -172 -43q-114 0 -163.5 65.5t-49.5 193.5zM121 278q0 -100 31.5 -153.5t114.5 -53.5q65 0 166 38v320 q-101 44 -165 44q-85 0 -116 -47t-31 -148z" />
<glyph unicode="h" horiz-adv-x="586" vert-adv-y="1200" d="M71 0v732l68 20v-278q57 26 118 44q49 14 98 14h12q69 -3 109 -45t40 -109v-378h-69v378q0 51 -32 75.5t-85 24.5q-49 0 -139 -36q-18 -7 -52 -21v-421h-68z" />
<glyph unicode="i" horiz-adv-x="231" vert-adv-y="1200" d="M80 0v525h69v-525h-69zM80 610v117h69v-117h-69z" />
<glyph unicode="j" horiz-adv-x="230" vert-adv-y="1200" d="M-95 -136q47 -7 69 -8h14q48 0 69 18q24 22 24 77v574h68v-553q0 -71 -31.5 -115.5t-99.5 -48.5h-16q-53 0 -97 11v45zM80 610v117h69v-117h-69z" />
<glyph unicode="k" horiz-adv-x="528" vert-adv-y="1200" d="M75 0v732l68 20v-458l266 231h88l-295 -255l297 -270h-86l-270 244v-244h-68z" />
<glyph unicode="l" horiz-adv-x="231" vert-adv-y="1200" d="M82 0v733l69 20v-753h-69z" />
<glyph unicode="m" horiz-adv-x="924" vert-adv-y="1200" d="M72 0v515l68 20v-58q4 2 50 22q87 34 162 34q76 0 112 -44l9 -12q63 28 115 41q56 15 116 15q73 0 110.5 -42.5t37.5 -112.5v-378h-68v378q0 54 -29 78.5t-88 24.5q-53 0 -140 -34q-5 -3 -16.5 -7t-17.5 -7q8 -27 8 -55v-378h-69v378q0 54 -29 78.5t-88 24.5 q-31 0 -80 -15q-36 -11 -95 -34v-432h-68z" />
<glyph unicode="n" horiz-adv-x="585" vert-adv-y="1200" d="M71 0v515l68 20v-63q57 26 118 44q49 14 98 14h12q69 -3 109 -45t40 -109v-376h-69v376q0 101 -117 101q-41 0 -139 -35q-18 -7 -52 -21v-421h-68z" />
<glyph unicode="o" horiz-adv-x="569" vert-adv-y="1200" d="M48 256q0 275 238 275q235 0 235 -275q0 -126 -57.5 -194.5t-177.5 -68.5t-179 69t-59 194zM120 256q0 -213 167 -213q162 0 162 213q0 113 -43.5 168.5t-118.5 55.5q-167 0 -167 -224z" />
<glyph unicode="p" horiz-adv-x="573" vert-adv-y="1200" d="M71 -196v711l69 20v-51q100 48 174 49q114 0 163 -67.5t49 -195.5q0 -130 -49 -201t-163 -71q-69 0 -174 33v-207zM140 81q83 -31 162 -33q45 0 75.5 17t46.5 49.5t22.5 69.5t6.5 86q0 50 -6 86t-22 65.5t-46.5 44.5t-75.5 15q-66 0 -163 -44v-356z" />
<glyph unicode="q" horiz-adv-x="573" vert-adv-y="1200" d="M48 270q0 128 49 195.5t163 67.5q74 -1 174 -49v41h69v-701l-69 -20v227q-104 -33 -174 -33q-114 0 -163 71t-49 201zM121 270q0 -49 6.5 -86t22.5 -69.5t46.5 -49.5t75.5 -17q79 2 162 33v356q-97 44 -163 44q-45 0 -75.5 -15t-46.5 -44.5t-22 -65.5t-6 -86z" />
<glyph unicode="r" horiz-adv-x="421" vert-adv-y="1200" d="M70 0v514l69 20v-52q51 23 116 37q50 10 97 10q20 0 39 -2v-56q-23 3 -47 3q-70 0 -150 -22q-31 -8 -55 -18v-434h-69z" />
<glyph unicode="s" horiz-adv-x="516" vert-adv-y="1200" d="M48 396q0 70 56 104q52 32 131 32h9q92 -3 195 -26v-46q-112 21 -193 21q-128 0 -128 -79q0 -46 30.5 -66.5t117.5 -39.5q104 -19 152.5 -56t48.5 -102q0 -145 -223 -145q-92 0 -188 26v46q100 -22 179 -22q87 0 124.5 21.5t37.5 70.5q0 50 -28 69t-126 40 q-103 20 -149 54t-46 98z" />
<glyph unicode="t" horiz-adv-x="414" vert-adv-y="1200" d="M15 464v54h126v160l69 20v-180h176v-54h-176v-322q0 -57 19 -79.5t79 -22.5q45 2 96 14v-48q-69 -18 -119 -18q-9 0 -18 1q-126 9 -126 156v319h-126z" />
<glyph unicode="u" horiz-adv-x="585" vert-adv-y="1200" d="M70 146v367l68 20v-395q0 -93 117 -93q58 0 191 49v431h69v-525h-69v47q-130 -54 -212 -54q-73 0 -118.5 37t-45.5 116z" />
<glyph unicode="v" horiz-adv-x="524" vert-adv-y="1200" d="M20 525h62l180 -473l180 473h62l-201 -525h-82z" />
<glyph unicode="w" horiz-adv-x="820" vert-adv-y="1200" d="M13 525h64l148 -473l142 473h86l141 -472l147 472h64l-170 -525h-83l-142 466l-143 -466h-83z" />
<glyph unicode="x" horiz-adv-x="532" vert-adv-y="1200" d="M18 0l211 262l-211 263h74l174 -217l174 217h74l-211 -263l211 -262h-74l-174 216l-174 -216h-74z" />
<glyph unicode="y" horiz-adv-x="585" vert-adv-y="1200" d="M70 168v347l68 20v-375q0 -93 117 -93q46 0 94 15q60 20 91 31v412h69v-561q0 -77 -58 -116.5t-154 -39.5q-80 0 -173 19v44q63 -11 120 -11q106 0 151 23.5t45 101.5v81q-69 -27 -112 -38q-49 -13 -94 -13q-73 0 -118.5 37t-45.5 116z" />
<glyph unicode="z" horiz-adv-x="515" vert-adv-y="1200" d="M57 471v54h404v-60l-338 -410h347l-22 -55h-390v67l338 404h-339z" />
<glyph unicode="{" horiz-adv-x="420" vert-adv-y="1200" d="M51 326v53q72 6 97.5 30t25.5 83v188q0 53 26.5 80.5t75.5 27.5h101v-49h-82q-33 0 -47.5 -13.5t-14.5 -44.5v-193q0 -108 -107 -131v-5q107 -22 107 -132v-195q0 -31 14.5 -44.5t47.5 -13.5h82v-48h-101q-102 0 -102 107v188q0 58 -25.5 82t-97.5 30z" />
<glyph unicode="|" horiz-adv-x="299" vert-adv-y="1200" d="M115 -82v871h68v-871h-68z" />
<glyph unicode="}" horiz-adv-x="420" vert-adv-y="1200" d="M51 -33h82q33 0 47.5 13.5t14.5 44.5v195q0 110 107 132v5q-107 23 -107 131v193q0 31 -14.5 44.5t-47.5 13.5h-82v49h101q49 0 75.5 -27.5t26.5 -80.5v-188q0 -59 25.5 -83t97.5 -30v-53q-72 -6 -97.5 -30t-25.5 -82v-188q0 -107 -102 -107h-101v48z" />
<glyph unicode="~" horiz-adv-x="462" vert-adv-y="1200" d="M26 350q16 43 48.5 65t70.5 22q45 0 103 -50q3 -2 11.5 -8t12.5 -8t12.5 -6.5t15 -6.5t15.5 -3.5t19 -1.5q29 1 72 55l26 -19q-19 -45 -50 -66t-63 -21q-36 1 -91 42q-49 41 -92 41q-40 0 -84 -53z" />
<glyph unicode="&#xa1;" horiz-adv-x="302" vert-adv-y="1200" d="M119 0l11 514h50l12 -514h-73zM119 633v94h71v-94h-71z" />
<glyph unicode="&#xa2;" horiz-adv-x="477" vert-adv-y="1200" d="M42 264q0 192 126 248q34 15 82 18v100h69v-102q10 -1 30 -5q49 -9 80 -20v-43q-30 8 -68 13l-42 3v-431q11 0 16 1q44 3 102 17v-43q-61 -21 -118 -25v-104h-69v102q-47 2 -83 18q-125 57 -125 253zM112 264q0 -84 22.5 -134t75.5 -71q14 -6 40 -11v425q-21 -3 -41 -11 q-97 -37 -97 -198z" />
<glyph unicode="&#xa3;" horiz-adv-x="650" vert-adv-y="1200" d="M44 95q-2 56 31 89.5t88 33.5q57 0 94 -26q0 58 -12 108q-2 5 -5 16t-4 16h-156v56h139q-1 1 -1 3q-39 111 -39 155q0 188 192 188q78 0 130 -42.5t58 -119.5h-56q-21 107 -132 107q-124 0 -124 -127q0 -18 3.5 -39t6.5 -32t13 -40.5t12 -37.5q0 -3 2 -8t2 -7h281 l-23 -56h-243q1 -7 5 -21q11 -52 11 -119q0 -10 -2 -40q6 -5 23.5 -19.5t25.5 -20.5t23 -17t24 -16.5t21.5 -12t23.5 -9t22 -2.5q32 0 52.5 23.5t35.5 81.5l55 -16q-22 -81 -53 -115t-90 -34q-39 0 -76.5 19.5t-100.5 71.5q-39 -96 -143 -94q-46 0 -79 27t-35 76zM104 100 q0 -24 17 -39t42 -15q33 0 56.5 21.5t29.5 64.5q-35 28 -80 28q-65 0 -65 -60z" />
<glyph unicode="&#xa4;" horiz-adv-x="700" vert-adv-y="1200" d="M33 88l111 100q-60 76 -60 175q0 92 56 167l-107 97l31 32l100 -98q74 71 181 71q109 -4 187 -75l103 102l33 -33l-112 -98q50 -69 50 -163q0 -96 -56 -171l114 -106l-29 -33l-109 111q-85 -77 -182 -72q-107 5 -175 67l-105 -105zM128 363q0 -98 64.5 -161t151.5 -63 q89 0 153.5 62.5t64.5 162.5q0 93 -62.5 158t-154.5 65t-154.5 -65t-62.5 -159z" />
<glyph unicode="&#xa5;" horiz-adv-x="700" vert-adv-y="1200" d="M54 737h75l221 -346l220 346h75l-228 -355h213v-55h-245v-82h245v-55h-245v-190h-70v190h-246v55h246v82h-246v55h214z" />
<glyph unicode="&#xa6;" horiz-adv-x="299" vert-adv-y="1200" d="M116 -83v364h67v-364h-67zM116 425v364h67v-364h-67z" />
<glyph unicode="&#xa7;" horiz-adv-x="505" vert-adv-y="1200" d="M43 391q0 51 27 81q19 19 36 28q-1 1 -10 7q-48 36 -48 100q0 71 55.5 104.5t140.5 31.5q92 -3 195 -26v-46q-112 21 -193 21q-128 0 -128 -79q0 -46 30.5 -66.5t117.5 -39.5q104 -19 152.5 -56t48.5 -102q0 -49 -24 -80q-12 -16 -34 -31q1 0 1 -1l2 -1q50 -36 50 -103 q0 -145 -223 -145q-92 0 -188 26v46q100 -22 179 -22q87 0 124.5 21.5t37.5 70.5q0 50 -28 69t-126 40q-103 20 -149 54t-46 98zM113 397q0 -46 30.5 -66.5t117.5 -39.5q50 -9 85 -22q18 8 27 16q24 23 24 61q0 50 -28 69t-126 40q-38 8 -65 15q-21 -4 -35 -14 q-30 -20 -30 -59z" />
<glyph unicode="&#xa8;" horiz-adv-x="540" vert-adv-y="1200" d="M96 654v88h86v-88h-86zM358 654v88h86v-88h-86z" />
<glyph unicode="&#xa9;" horiz-adv-x="800" vert-adv-y="1200" d="M32 360q0 154 104.5 260.5t261.5 106.5q155 0 261 -106.5t106 -260.5t-106 -261t-261 -107q-157 0 -261.5 107t-104.5 261zM67 360q0 -147 92.5 -240.5t238.5 -93.5q144 0 238 94t94 240t-93.5 239.5t-238.5 93.5q-146 0 -238.5 -93t-92.5 -240zM230 362q0 91 43.5 145.5 t121.5 54.5q60 0 124 -19v-37q-55 11 -103 11q-74 0 -104.5 -38t-30.5 -117q0 -85 30 -122t106 -37q54 0 108 14v-38q-60 -20 -132 -20q-77 0 -120 54.5t-43 148.5z" />
<glyph unicode="&#xaa;" horiz-adv-x="500" vert-adv-y="1200" d="M76 337v55h346v-55h-346zM103 548q0 38 16.5 61.5t58.5 38.5q39 14 140 14v11q0 33 -25.5 44.5t-75.5 11.5q-44 0 -85 -10v45q47 13 114 13q134 0 134 -101v-225h-59v24q-55 -27 -118 -27q-47 0 -73.5 25.5t-26.5 74.5zM164 552q0 -58 64 -58q51 0 90 26v99 q-80 -2 -106 -11q-15 -4 -23.5 -9t-16.5 -17t-8 -30z" />
<glyph unicode="&#xab;" horiz-adv-x="700" vert-adv-y="1200" d="M65 231v69l300 190v-59l-253 -166l253 -164v-62zM337 231v69l300 190v-59l-253 -166l253 -164v-62z" />
<glyph unicode="&#xac;" horiz-adv-x="700" vert-adv-y="1200" d="M16 72v57h665v-278h-59v221h-606z" />
<glyph unicode="&#xad;" horiz-adv-x="500" vert-adv-y="1200" d="M57 341v55h386v-55h-386z" />
<glyph unicode="&#xae;" horiz-adv-x="800" vert-adv-y="1200" d="M32 360q0 154 104.5 260.5t261.5 106.5q155 0 261 -106.5t106 -260.5t-106 -261t-261 -107q-157 0 -261.5 107t-104.5 261zM67 360q0 -147 92.5 -240.5t238.5 -93.5q144 0 238 94t94 240t-93.5 239.5t-238.5 93.5q-146 0 -238.5 -93t-92.5 -240zM254 136v446h171 q77 0 112.5 -32t35.5 -106q0 -77 -37 -113q-18 -18 -52 -28l94 -167h-60l-89 160h-4h-116v-160h-55zM309 341h117q90 0 90 103q0 50 -21.5 72t-68.5 22h-117v-197z" />
<glyph unicode="&#xaf;" horiz-adv-x="500" vert-adv-y="1200" d="M80 774v55h340v-55h-340z" />
<glyph unicode="&#xb0;" horiz-adv-x="446" vert-adv-y="1200" d="M66 590q0 158 157 158q158 0 158 -158q0 -157 -158 -157q-157 0 -157 157zM130 590q0 -96 93 -96q50 0 72.5 23.5t22.5 72.5q0 50 -22.5 73t-72.5 23q-48 0 -70.5 -23t-22.5 -73z" />
<glyph unicode="&#xb1;" horiz-adv-x="530" vert-adv-y="1200" d="M49 21v55h432v-55h-432zM49 342v55h183v192h67v-192h182v-55h-182v-194h-67v194h-183z" />
<glyph unicode="&#xb2;" horiz-adv-x="300" vert-adv-y="1200" d="M25 386v48l94 88q87 80 87 149q0 37 -18 53.5t-63 16.5q-41 0 -97 -14v45q53 20 105 20q70 0 103 -28.5t33 -88.5q0 -53 -32 -97.5t-90 -97.5l-45 -44h181l-17 -50h-241z" />
<glyph unicode="&#xb3;" horiz-adv-x="310" vert-adv-y="1200" d="M20 399v45q57 -12 119 -12q42 0 60.5 15t20.5 49q0 43 -27.5 58t-81.5 15h-24v50h24q94 0 94 70q0 27 -15 39t-51 13q-51 0 -105 -14v45q56 20 105 20q67 0 98 -24t31 -77q0 -57 -67 -91q83 -24 83 -104q0 -115 -138 -115q-61 0 -126 18z" />
<glyph unicode="&#xb4;" horiz-adv-x="280" vert-adv-y="1200" d="M60 772l62 127h98l-105 -127h-55z" />
<glyph unicode="&#xb5;" horiz-adv-x="651" vert-adv-y="1200" d="M27 0l252 727h94l252 -727h-68l-68 197h-327l-67 -197h-68zM181 251h290l-145 423zM241 899h93l62 -127h-50z" />
<glyph unicode="&#xb6;" horiz-adv-x="605" vert-adv-y="1200" d="M53 525q0 95 50 148.5t169 53.5h227v-727h-81v662h-76v-662h-81v323q-112 8 -160 59t-48 143z" />
<glyph unicode="&#xb7;" horiz-adv-x="314" vert-adv-y="1200" d="M116 272v96h91v-96h-91z" />
<glyph unicode="&#xb8;" horiz-adv-x="317" vert-adv-y="1200" d="M76 -140q38 -7 79 -7q48 0 48 38q0 32 -36 32h-77l28 100h51l-11 -57h20q35 0 56 -18.5t21 -56.5q0 -86 -92 -86q-47 0 -87 10v45z" />
<glyph unicode="&#xb9;" horiz-adv-x="226" vert-adv-y="1200" d="M27 707v45l142 34v-400h-59v337z" />
<glyph unicode="&#xba;" horiz-adv-x="500" vert-adv-y="1200" d="M76 337v55h346v-55h-346zM95 604q0 84 36 127.5t117 43.5q79 0 114.5 -43.5t35.5 -127.5q0 -166 -150 -166q-81 0 -117 42.5t-36 123.5zM163 604q0 -65 20 -91.5t65 -26.5q41 0 61 27t20 91q0 67 -20 95.5t-61 28.5q-45 0 -65 -28t-20 -96z" />
<glyph unicode="&#xbb;" horiz-adv-x="700" vert-adv-y="1200" d="M65 39v62l253 164l-253 166v59l300 -190v-69zM337 39v62l253 164l-253 166v59l300 -190v-69z" />
<glyph unicode="&#xbc;" horiz-adv-x="794" vert-adv-y="1200" d="M25 648v39l154 45v-441h-67v371zM97 0l493 727h76l-494 -727h-75zM432 91v51l189 296h76v-297h81l-20 -50h-61v-90h-61v90h-204zM495 141h141v222z" />
<glyph unicode="&#xbd;" horiz-adv-x="837" vert-adv-y="1200" d="M25 648v39l154 45v-441h-67v371zM77 0l493 727h76l-494 -727h-75zM532 0v51l100 98q95 93 95 161q0 43 -18.5 61t-68.5 18q-42 0 -104 -16v46q68 22 112 22q147 0 147 -126q0 -50 -26.5 -92.5t-88.5 -104.5q-18 -18 -26 -25q-11 -9 -43 -41h200q-4 -9 -10.5 -26t-9.5 -26 h-259z" />
<glyph unicode="&#xbe;" horiz-adv-x="825" vert-adv-y="1200" d="M29 300v47q81 -16 128 -16t67.5 18t21.5 56q0 46 -30.5 63.5t-89.5 17.5h-23v52h23q104 0 104 77q0 29 -16.5 43.5t-56.5 15.5q-55 0 -112 -17v46q61 23 112 23q72 0 105.5 -26t33.5 -83q0 -65 -74 -100q92 -27 92 -112q-1 -126 -148 -126q-62 0 -137 21zM153 0l493 727 h76l-494 -727h-75zM464 91v51l189 296h76v-297h81l-20 -50h-61v-90h-61v90h-204zM527 141h141v222z" />
<glyph unicode="&#xbf;" horiz-adv-x="615" vert-adv-y="1200" d="M117 147q0 73 24.5 125.5t81.5 102.5q4 4 19 17t18 16.5t14 14t13.5 15t9.5 14.5t8.5 17t3.5 17t2 21v40h53v-50q0 -35 -15.5 -64.5t-32.5 -46.5t-57 -52q-78 -74 -78 -159q0 -74 36.5 -110t118.5 -36q68 0 154 22v-45q-101 -32 -177 -32q-85 0 -140.5 44.5t-55.5 128.5z M302 634v94h71v-94h-71z" />
<glyph unicode="&#xc0;" horiz-adv-x="651" vert-adv-y="1200" d="M27 0l252 727h94l252 -727h-68l-68 197h-327l-67 -197h-68zM181 251h290l-145 423zM256 772l62 127h93l-105 -127h-50z" />
<glyph unicode="&#xc1;" horiz-adv-x="651" vert-adv-y="1200" d="M27 0l252 727h94l252 -727h-68l-68 197h-327l-67 -197h-68zM181 251h290l-145 423zM191 772l102 127h67l106 -127h-65l-75 94l-70 -94h-65z" />
<glyph unicode="&#xc2;" horiz-adv-x="651" vert-adv-y="1200" d="M27 0l252 727h94l252 -727h-68l-68 197h-327l-67 -197h-68zM181 251h290l-145 423zM194 818q20 62 83 62q27 0 68 -32q27 -19 46 -19q33 0 50 33l24 -26q-22 -58 -85 -58q-25 0 -60 28q-28 22 -49 22q-33 0 -54 -36z" />
<glyph unicode="&#xc3;" horiz-adv-x="651" vert-adv-y="1200" d="M27 0l252 727h94l252 -727h-68l-68 197h-327l-67 -197h-68zM180 772v96h91v-96h-91zM181 251h290l-145 423zM381 772v96h91v-96h-91z" />
<glyph unicode="&#xc4;" horiz-adv-x="651" vert-adv-y="1200" d="M27 0l252 727h94l252 -727h-68l-68 197h-327l-67 -197h-68zM181 251h290l-145 423zM249 830q0 33 22 53t55 20q34 0 55.5 -20t21.5 -53q0 -31 -21.5 -50.5t-55.5 -19.5q-33 0 -55 20t-22 50zM291 830q0 -14 10 -22.5t25 -8.5t24.5 8.5t9.5 22.5q0 32 -34 32 q-35 0 -35 -32z" />
<glyph unicode="&#xc5;" horiz-adv-x="581" vert-adv-y="1200" d="M57 363q0 371 279 371q109 0 205 -30v-46q-98 20 -186 20q-118 0 -172 -80t-54 -235q0 -312 227 -312q69 0 185 22v-48q-107 -30 -205 -30h-1l-5 -29h20q35 0 56 -18.5t21 -56.5q0 -86 -92 -86q-47 0 -87 10v45q38 -7 79 -7q48 0 48 38q0 32 -36 32h-77l21 76 q-41 6 -75 23q-151 80 -151 341z" />
<glyph unicode="&#xc6;" horiz-adv-x="900" vert-adv-y="1200" d="M38 0l353 727h466v-55h-359v-276h342l-20 -56h-322v-285h359v-55h-424v200h-229l-97 -200h-69zM231 254h202v414z" />
<glyph unicode="&#xc7;" horiz-adv-x="601" vert-adv-y="1200" d="M76 0v727h476v-55h-407v-276h390l-20 -56h-370v-285h407v-55h-476zM206 899h93l62 -127h-50z" />
<glyph unicode="&#xc8;" horiz-adv-x="601" vert-adv-y="1200" d="M76 0v727h476v-55h-407v-276h390l-20 -56h-370v-285h407v-55h-476zM256 772l62 127h93l-105 -127h-50z" />
<glyph unicode="&#xc9;" horiz-adv-x="601" vert-adv-y="1200" d="M76 0v727h476v-55h-407v-276h390l-20 -56h-370v-285h407v-55h-476zM191 772l102 127h67l106 -127h-65l-75 94l-70 -94h-65z" />
<glyph unicode="&#xca;" horiz-adv-x="601" vert-adv-y="1200" d="M76 0v727h476v-55h-407v-276h390l-20 -56h-370v-285h407v-55h-476zM180 772v96h91v-96h-91zM381 772v96h91v-96h-91z" />
<glyph unicode="&#xcb;" horiz-adv-x="242" vert-adv-y="1200" d="M15 899h93l62 -127h-50zM87 0v727h69v-727h-69z" />
<glyph unicode="&#xcc;" horiz-adv-x="242" vert-adv-y="1200" d="M77 772l62 127h93l-105 -127h-50zM87 0v727h69v-727h-69z" />
<glyph unicode="&#xcd;" horiz-adv-x="242" vert-adv-y="1200" d="M-16 772l102 127h67l106 -127h-65l-75 94l-70 -94h-65zM87 0v727h69v-727h-69z" />
<glyph unicode="&#xce;" horiz-adv-x="258" vert-adv-y="1200" d="M3 772v96h91v-96h-91zM96 0v727h69v-727h-69zM164 772v96h91v-96h-91z" />
<glyph unicode="&#xcf;" horiz-adv-x="702" vert-adv-y="1200" d="M78 0v727h103l379 -671v671h64v-727h-103l-380 668v-668h-63zM223 818q20 62 83 62q27 0 68 -32q27 -19 46 -19q33 0 50 33l24 -26q-22 -58 -85 -58q-25 0 -60 28q-27 22 -49 22q-33 0 -54 -36z" />
<glyph unicode="&#xd0;" horiz-adv-x="794" vert-adv-y="1200" d="M40 342v55h133v330h255q66 0 115 -16t80.5 -45t51 -73.5t27 -96t7.5 -119.5q0 -89 -12 -153.5t-42.5 -117.5t-87 -79.5t-139.5 -26.5h-255v342h-133zM241 55h176q68 0 113 24.5t67.5 71.5t31 100t8.5 126q0 72 -8.5 121.5t-31 91t-67.5 62t-113 20.5h-176v-275h174 l-21 -55h-153v-287z" />
<glyph unicode="&#xd1;" horiz-adv-x="585" vert-adv-y="1200" d="M70 141v5v369l68 20v-397q0 -93 117 -93q58 0 191 49v431h69v-525h-69v47q-130 -54 -212 -54q-31 0 -63 8q-18 5 -33 12v-203h-68v331z" />
<glyph unicode="&#xd2;" horiz-adv-x="687" vert-adv-y="1200" d="M57 359q0 190 65 282.5t220 92.5t221 -93t66 -282t-65.5 -276.5t-221.5 -87.5q-154 0 -219.5 88.5t-65.5 275.5zM129 359q0 -163 48 -236.5t165 -73.5q119 0 167.5 72.5t48.5 237.5q0 163 -49.5 242t-166.5 79q-116 0 -164.5 -78.5t-48.5 -242.5zM241 899h93l62 -127h-50 z" />
<glyph unicode="&#xd3;" horiz-adv-x="687" vert-adv-y="1200" d="M57 359q0 190 65 282.5t220 92.5t221 -93t66 -282t-65.5 -276.5t-221.5 -87.5q-154 0 -219.5 88.5t-65.5 275.5zM129 359q0 -163 48 -236.5t165 -73.5q119 0 167.5 72.5t48.5 237.5q0 163 -49.5 242t-166.5 79q-116 0 -164.5 -78.5t-48.5 -242.5zM276 772l62 127h93 l-105 -127h-50z" />
<glyph unicode="&#xd4;" horiz-adv-x="687" vert-adv-y="1200" d="M57 359q0 190 65 282.5t220 92.5t221 -93t66 -282t-65.5 -276.5t-221.5 -87.5q-154 0 -219.5 88.5t-65.5 275.5zM129 359q0 -163 48 -236.5t165 -73.5q119 0 167.5 72.5t48.5 237.5q0 163 -49.5 242t-166.5 79q-116 0 -164.5 -78.5t-48.5 -242.5zM207 772l102 127h67 l106 -127h-65l-75 94l-70 -94h-65z" />
<glyph unicode="&#xd5;" horiz-adv-x="687" vert-adv-y="1200" d="M57 359q0 190 65 282.5t220 92.5t221 -93t66 -282t-65.5 -276.5t-221.5 -87.5q-154 0 -219.5 88.5t-65.5 275.5zM129 359q0 -163 48 -236.5t165 -73.5q119 0 167.5 72.5t48.5 237.5q0 163 -49.5 242t-166.5 79q-116 0 -164.5 -78.5t-48.5 -242.5zM204 818q20 62 83 62 q27 0 68 -32q27 -19 46 -19q33 0 50 33l24 -26q-22 -58 -85 -58q-25 0 -60 28q-28 22 -49 22q-33 0 -54 -36z" />
<glyph unicode="&#xd6;" horiz-adv-x="687" vert-adv-y="1200" d="M57 359q0 190 65 282.5t220 92.5t221 -93t66 -282t-65.5 -276.5t-221.5 -87.5q-154 0 -219.5 88.5t-65.5 275.5zM129 359q0 -163 48 -236.5t165 -73.5q119 0 167.5 72.5t48.5 237.5q0 163 -49.5 242t-166.5 79q-116 0 -164.5 -78.5t-48.5 -242.5zM196 772v96h91v-96h-91z M397 772v96h91v-96h-91z" />
<glyph unicode="&#xd7;" horiz-adv-x="530" vert-adv-y="1200" d="M43 180l183 186l-182 185l40 39l181 -185l181 184l40 -39l-182 -185l182 -184l-40 -39l-181 184l-181 -185z" />
<glyph unicode="&#xd8;" horiz-adv-x="687" vert-adv-y="1200" d="M57 359q0 190 65 282.5t220 92.5q81 0 135 -25q23 -11 42 -24l50 87h68l-75 -129l3 -6q64 -90 64 -278q0 -189 -65.5 -276.5t-221.5 -87.5q-77 0 -134 23q-1 0 -3.5 1t-4.5 2l-56 -96h-65l73 126q-21 19 -32 35q-63 87 -63 273zM129 359q0 -161 46 -234q3 -5 11 -15 l300 518q-18 18 -42 31q-40 21 -102 21q-116 0 -164.5 -78.5t-48.5 -242.5zM230 73q5 -4 11 -5q39 -19 101 -19q119 0 167.5 72.5t48.5 237.5q0 75 -11 138q-7 40 -25 78z" />
<glyph unicode="&#xd9;" horiz-adv-x="676" vert-adv-y="1200" d="M76 225v502h69v-501q0 -89 51.5 -132t141.5 -43q193 0 193 175v501h69v-502q0 -120 -66 -175t-196 -55q-129 0 -195.5 55t-66.5 175zM240 899h93l62 -127h-50z" />
<glyph unicode="&#xda;" horiz-adv-x="676" vert-adv-y="1200" d="M76 225v502h69v-501q0 -89 51.5 -132t141.5 -43q193 0 193 175v501h69v-502q0 -120 -66 -175t-196 -55q-129 0 -195.5 55t-66.5 175zM276 772l62 127h93l-105 -127h-50z" />
<glyph unicode="&#xdb;" horiz-adv-x="676" vert-adv-y="1200" d="M76 225v502h69v-501q0 -89 51.5 -132t141.5 -43q193 0 193 175v501h69v-502q0 -120 -66 -175t-196 -55q-129 0 -195.5 55t-66.5 175zM207 772l102 127h67l106 -127h-65l-75 94l-70 -94h-65z" />
<glyph unicode="&#xdc;" horiz-adv-x="676" vert-adv-y="1200" d="M76 225v502h69v-501q0 -89 51.5 -132t141.5 -43q193 0 193 175v501h69v-502q0 -120 -66 -175t-196 -55q-129 0 -195.5 55t-66.5 175zM195 772v96h91v-96h-91zM396 772v96h91v-96h-91z" />
<glyph unicode="&#xdd;" horiz-adv-x="642" vert-adv-y="1200" d="M26 727h75l221 -346l220 346h75l-260 -405v-322h-70v322zM266 772l62 127h93l-105 -127h-50z" />
<glyph unicode="&#xde;" horiz-adv-x="642" vert-adv-y="1200" d="M87 0v727h69v-107h195q123 0 179.5 -57t56.5 -182q0 -127 -57.5 -190.5t-178.5 -63.5h-195v-127h-69zM156 187h217q71 0 107.5 55t36.5 139q0 85 -35.5 132t-108.5 47h-217v-373z" />
<glyph unicode="&#xdf;" horiz-adv-x="573" vert-adv-y="1200" d="M71 0v527q0 107 53 156.5t163 49.5q91 0 140 -37t49 -107q0 -31 -13 -58.5t-25.5 -41.5t-35.5 -34q-2 -2 -12 -11t-12.5 -11.5l-10.5 -10.5t-10.5 -12t-7.5 -11.5t-7 -13.5t-3.5 -13.5t-1.5 -15.5q0 -28 12 -43.5t38 -29.5l57 -31q56 -33 70 -48q28 -32 28 -89t-46 -88.5 t-122 -31.5q-68 0 -122 22v49q74 -24 127 -20q106 7 106 74q0 25 -15 38.5t-64 41.5q-8 4 -24.5 13.5t-24.5 13.5h1q-50 29 -72 58t-22 74q0 28 12 53t25 38.5t36 32.5q45 41 55 59q11 19 11 41q0 49 -28 72t-88 23q-79 0 -113 -37.5t-34 -122.5v-518h-69z" />
<glyph unicode="&#xe0;" vert-adv-y="1200" d="M47 147q0 59 26.5 98t91.5 60q70 23 255 23v27q0 78 -44.5 101t-151.5 23q-66 -2 -130 -13v46q93 19 183 19q96 0 154 -39t58 -116v-376h-65v54q-109 -61 -223 -61q-70 0 -112 40t-42 114zM120 154q0 -111 126 -111q86 0 174 57v184q-138 0 -213 -21q-44 -13 -65.5 -38.5 t-21.5 -70.5zM181 697h93l62 -127h-50z" />
<glyph unicode="&#xe1;" vert-adv-y="1200" d="M47 147q0 59 26.5 98t91.5 60q70 23 255 23v27q0 78 -44.5 101t-151.5 23q-66 -2 -130 -13v46q93 19 183 19q96 0 154 -39t58 -116v-376h-65v54q-109 -61 -223 -61q-70 0 -112 40t-42 114zM120 154q0 -111 126 -111q86 0 174 57v184q-138 0 -213 -21q-44 -13 -65.5 -38.5 t-21.5 -70.5zM236 570l62 127h93l-105 -127h-50z" />
<glyph unicode="&#xe2;" vert-adv-y="1200" d="M47 147q0 59 26.5 98t91.5 60q70 23 255 23v27q0 78 -44.5 101t-151.5 23q-66 -2 -130 -13v46q93 19 183 19q96 0 154 -39t58 -116v-376h-65v54q-109 -61 -223 -61q-70 0 -112 40t-42 114zM120 154q0 -111 126 -111q86 0 174 57v184q-138 0 -213 -21q-44 -13 -65.5 -38.5 t-21.5 -70.5zM145 570l102 127h67l106 -127h-65l-75 94l-70 -94h-65z" />
<glyph unicode="&#xe3;" vert-adv-y="1200" d="M47 147q0 59 26.5 98t91.5 60q70 23 255 23v27q0 78 -44.5 101t-151.5 23q-66 -2 -130 -13v46q93 19 183 19q96 0 154 -39t58 -116v-376h-65v54q-109 -61 -223 -61q-70 0 -112 40t-42 114zM120 154q0 -111 126 -111q86 0 174 57v184q-138 0 -213 -21q-44 -13 -65.5 -38.5 t-21.5 -70.5zM148 617q20 62 83 62q27 0 68 -32q27 -19 46 -19q33 0 50 33l24 -26q-22 -58 -85 -58q-25 0 -60 28q-27 22 -49 22q-33 0 -54 -36z" />
<glyph unicode="&#xe4;" vert-adv-y="1200" d="M47 147q0 59 26.5 98t91.5 60q70 23 255 23v27q0 78 -44.5 101t-151.5 23q-66 -2 -130 -13v46q93 19 183 19q96 0 154 -39t58 -116v-376h-65v54q-109 -61 -223 -61q-70 0 -112 40t-42 114zM120 154q0 -111 126 -111q86 0 174 57v184q-138 0 -213 -21q-44 -13 -65.5 -38.5 t-21.5 -70.5zM135 570v96h91v-96h-91zM336 570v96h91v-96h-91z" />
<glyph unicode="&#xe5;" vert-adv-y="1200" d="M47 147q0 59 26.5 98t91.5 60q70 23 255 23v27q0 78 -44.5 101t-151.5 23q-66 -2 -130 -13v46q93 19 183 19q96 0 154 -39t58 -116v-376h-65v54q-109 -61 -223 -61q-70 0 -112 40t-42 114zM120 154q0 -111 126 -111q86 0 174 57v184q-138 0 -213 -21q-44 -13 -65.5 -38.5 t-21.5 -70.5zM203 634q0 33 22 53t55 20q34 0 55.5 -20t21.5 -53q0 -31 -21.5 -50.5t-55.5 -19.5q-33 0 -55 20t-22 50zM245 634q0 -14 10 -22.5t25 -8.5t24.5 8.5t9.5 22.5q0 32 -34 32q-35 0 -35 -32z" />
<glyph unicode="&#xe6;" horiz-adv-x="900" vert-adv-y="1200" d="M36 147q0 59 26.5 98t91.5 60q70 23 245 23v27q0 78 -40.5 101t-145.5 23q-66 -2 -130 -13v46q93 19 183 19q93 0 146 -38q22 -16 35 -38q3 5 11 13q56 63 169 63q226 0 226 -255v-23q0 -17 -1 -24h-383q4 -100 36.5 -142t125.5 -42q107 0 200 26v-46q-96 -32 -210 -32 q-120 0 -173 65q-8 10 -11 15q-24 -17 -49 -31q-92 -49 -198 -49q-70 0 -112 40t-42 114zM109 154q0 -111 126 -111q43 0 95 20q47 20 88 49q-2 7 -7 28q-11 52 -11 117v21l-1 6q-128 0 -203 -21q-44 -13 -65.5 -38.5t-21.5 -70.5zM469 277h318q-2 107 -38.5 154.5 t-121.5 47.5q-87 0 -119.5 -46t-38.5 -156z" />
<glyph unicode="&#xe7;" horiz-adv-x="477" vert-adv-y="1200" d="M47 264q0 125 57 196t171 71q75 0 159 -28v-43q-67 17 -131 17q-102 0 -144 -54t-42 -159q0 -112 42 -165.5t146 -53.5q64 0 137 18v-43q-78 -28 -168 -28l-5 -26h20q35 0 56 -18.5t21 -56.5q0 -86 -92 -86q-47 0 -87 10v45q38 -7 79 -7q48 0 48 38q0 32 -36 32h-77 l20 74q-31 5 -49 14q-125 57 -125 253z" />
<glyph unicode="&#xe8;" vert-adv-y="1200" d="M48 257q0 274 237 274q226 0 226 -255q0 -34 -1 -47h-393q4 -97 41 -140.5t131 -43.5q107 0 200 26v-46q-96 -32 -210 -32q-123 0 -177 64t-54 200zM117 277h328q-2 107 -38.5 154.5t-121.5 47.5q-88 0 -125 -47t-43 -155zM181 697h93l62 -127h-50z" />
<glyph unicode="&#xe9;" vert-adv-y="1200" d="M48 257q0 274 237 274q226 0 226 -255q0 -34 -1 -47h-393q4 -97 41 -140.5t131 -43.5q107 0 200 26v-46q-96 -32 -210 -32q-123 0 -177 64t-54 200zM117 277h328q-2 107 -38.5 154.5t-121.5 47.5q-88 0 -125 -47t-43 -155zM236 570l62 127h93l-105 -127h-50z" />
<glyph unicode="&#xea;" vert-adv-y="1200" d="M48 257q0 274 237 274q226 0 226 -255q0 -34 -1 -47h-393q4 -97 41 -140.5t131 -43.5q107 0 200 26v-46q-96 -32 -210 -32q-123 0 -177 64t-54 200zM117 277h328q-2 107 -38.5 154.5t-121.5 47.5q-88 0 -125 -47t-43 -155zM150 570l102 127h67l106 -127h-65l-75 94 l-70 -94h-65z" />
<glyph unicode="&#xeb;" vert-adv-y="1200" d="M48 257q0 274 237 274q226 0 226 -255q0 -34 -1 -47h-393q4 -97 41 -140.5t131 -43.5q107 0 200 26v-46q-96 -32 -210 -32q-123 0 -177 64t-54 200zM117 277h328q-2 107 -38.5 154.5t-121.5 47.5q-88 0 -125 -47t-43 -155zM140 570v96h91v-96h-91zM341 570v96h91v-96h-91 z" />
<glyph unicode="&#xec;" horiz-adv-x="242" vert-adv-y="1200" d="M6 697h93l62 -127h-50zM82 0v525h69v-525h-69z" />
<glyph unicode="&#xed;" horiz-adv-x="242" vert-adv-y="1200" d="M72 570l62 127h93l-105 -127h-50zM82 0v525h69v-525h-69z" />
<glyph unicode="&#xee;" horiz-adv-x="242" vert-adv-y="1200" d="M-20 570l102 127h67l106 -127h-65l-75 94l-70 -94h-65zM82 0v525h69v-525h-69z" />
<glyph unicode="&#xef;" horiz-adv-x="258" vert-adv-y="1200" d="M-1 570v96h91v-96h-91zM91 0v525h69v-525h-69zM159 570v96h91v-96h-91z" />
<glyph unicode="&#xf0;" horiz-adv-x="548" vert-adv-y="1200" d="M38 256q0 275 238 275q56 0 101 -17q-24 48 -52 83q-11 15 -37 45l-151 -62l-19 46l131 54q-44 41 -98 78l52 24q59 -35 106 -76l107 44l20 -47l-87 -36q40 -41 74 -95q38 -59 61 -131q20 -65 25 -137q2 -30 2 -48q0 -126 -57.5 -194.5t-177.5 -68.5t-179 69t-59 194z M110 256q0 -213 167 -213q162 0 162 213q0 113 -43.5 168.5t-118.5 55.5q-167 0 -167 -224z" />
<glyph unicode="&#xf1;" horiz-adv-x="585" vert-adv-y="1200" d="M71 0v515l68 20v-63q140 62 228 58q69 -3 109 -45t40 -109v-376h-69v376q0 101 -117 101q-28 0 -84 -16t-107 -40v-421h-68zM158 617q20 62 83 62q27 0 68 -32q27 -19 46 -19q33 0 50 33l24 -26q-22 -58 -85 -58q-25 0 -60 28q-27 22 -49 22q-33 0 -54 -36z" />
<glyph unicode="&#xf2;" horiz-adv-x="569" vert-adv-y="1200" d="M48 256q0 275 238 275q235 0 235 -275q0 -126 -57.5 -194.5t-177.5 -68.5t-179 69t-59 194zM120 256q0 -213 167 -213q162 0 162 213q0 113 -43.5 168.5t-118.5 55.5q-167 0 -167 -224zM181 697h93l62 -127h-50z" />
<glyph unicode="&#xf3;" horiz-adv-x="569" vert-adv-y="1200" d="M48 256q0 275 238 275q235 0 235 -275q0 -126 -57.5 -194.5t-177.5 -68.5t-179 69t-59 194zM120 256q0 -213 167 -213q162 0 162 213q0 113 -43.5 168.5t-118.5 55.5q-167 0 -167 -224zM231 570l62 127h93l-105 -127h-50z" />
<glyph unicode="&#xf4;" horiz-adv-x="569" vert-adv-y="1200" d="M48 256q0 275 238 275q235 0 235 -275q0 -126 -57.5 -194.5t-177.5 -68.5t-179 69t-59 194zM120 256q0 -213 167 -213q162 0 162 213q0 113 -43.5 168.5t-118.5 55.5q-167 0 -167 -224zM150 570l102 127h67l106 -127h-65l-75 94l-70 -94h-65z" />
<glyph unicode="&#xf5;" horiz-adv-x="569" vert-adv-y="1200" d="M48 256q0 275 238 275q235 0 235 -275q0 -126 -57.5 -194.5t-177.5 -68.5t-179 69t-59 194zM120 256q0 -213 167 -213q162 0 162 213q0 113 -43.5 168.5t-118.5 55.5q-167 0 -167 -224zM154 617q20 62 83 62q27 0 68 -32q27 -19 46 -19q33 0 50 33l24 -26 q-22 -58 -85 -58q-25 0 -60 28q-28 22 -49 22q-33 0 -54 -36z" />
<glyph unicode="&#xf6;" horiz-adv-x="569" vert-adv-y="1200" d="M48 256q0 275 238 275q235 0 235 -275q0 -126 -57.5 -194.5t-177.5 -68.5t-179 69t-59 194zM120 256q0 -213 167 -213q162 0 162 213q0 113 -43.5 168.5t-118.5 55.5q-167 0 -167 -224zM140 570v96h91v-96h-91zM341 570v96h91v-96h-91z" />
<glyph unicode="&#xf7;" horiz-adv-x="530" vert-adv-y="1200" d="M38 344v53h453v-53h-453zM218 133v107h91v-107h-91zM218 505v108h91v-108h-91z" />
<glyph unicode="&#xf8;" horiz-adv-x="580" vert-adv-y="1200" d="M4 -35l96 116q-18 26 -29 66q-14 51 -14 109q0 275 238 275q90 0 145 -41l69 83h68l-100 -120q53 -73 53 -197q0 -126 -57.5 -194.5t-177.5 -68.5q-62 0 -107 18q-34 14 -54 32l-65 -78h-65zM129 256q0 -57 11 -99q3 -11 7 -20l252 304q-17 17 -38 26q-27 13 -65 13 q-167 0 -167 -224zM174 91q22 -25 52 -37q33 -11 70 -11q162 0 162 213q0 59 -12 101q-9 27 -16 41z" />
<glyph unicode="&#xf9;" horiz-adv-x="585" vert-adv-y="1200" d="M70 146v369l68 20v-397q0 -93 117 -93q58 0 191 49v431h69v-525h-69v47q-130 -54 -212 -54q-73 0 -118.5 37t-45.5 116zM184 697h93l62 -127h-50z" />
<glyph unicode="&#xfa;" horiz-adv-x="585" vert-adv-y="1200" d="M70 146v369l68 20v-397q0 -93 117 -93q58 0 191 49v431h69v-525h-69v47q-130 -54 -212 -54q-73 0 -118.5 37t-45.5 116zM241 570l62 127h93l-105 -127h-50z" />
<glyph unicode="&#xfb;" horiz-adv-x="585" vert-adv-y="1200" d="M70 146v369l68 20v-397q0 -93 117 -93q58 0 191 49v431h69v-525h-69v47q-130 -54 -212 -54q-73 0 -118.5 37t-45.5 116zM163 570l102 127h67l106 -127h-65l-75 94l-70 -94h-65z" />
<glyph unicode="&#xfc;" horiz-adv-x="585" vert-adv-y="1200" d="M70 146v369l68 20v-397q0 -93 117 -93q58 0 191 49v431h69v-525h-69v47q-130 -54 -212 -54q-73 0 -118.5 37t-45.5 116zM153 570v96h91v-96h-91zM354 570v96h91v-96h-91z" />
<glyph unicode="&#xfd;" horiz-adv-x="585" vert-adv-y="1200" d="M70 168v347l68 20v-375q0 -93 117 -93q57 0 185 46v412h69v-561q0 -77 -58 -116.5t-154 -39.5q-80 0 -173 19v44q63 -11 120 -11q106 0 151 23.5t45 101.5v81q-127 -51 -206 -51q-73 0 -118.5 37t-45.5 116zM241 570l62 127h93l-105 -127h-50z" />
<glyph unicode="&#xfe;" horiz-adv-x="560" vert-adv-y="1200" d="M71 -196v927l69 20v-267q100 48 174 49q114 0 163 -67.5t49 -195.5q0 -130 -49 -201t-163 -71q-69 0 -174 33v-207zM140 81q83 -31 162 -33q45 0 75.5 17t46.5 49.5t22.5 69.5t6.5 86q0 50 -6 86t-22 65.5t-46.5 44.5t-75.5 15q-66 0 -163 -44v-356z" />
<glyph unicode="&#xff;" horiz-adv-x="585" vert-adv-y="1200" d="M70 168v347l68 20v-375q0 -93 117 -93q57 0 185 46v412h69v-561q0 -77 -58 -116.5t-154 -39.5q-80 0 -173 19v44q63 -11 120 -11q106 0 151 23.5t45 101.5v81q-127 -51 -206 -51q-73 0 -118.5 37t-45.5 116zM153 570v96h91v-96h-91zM354 570v96h91v-96h-91z" />
<glyph unicode="&#x152;" horiz-adv-x="860" vert-adv-y="1200" d="M45 377q0 172 66.5 261t225.5 89h491v-55h-335v-276h318l-20 -56h-298v-285h335v-55h-502q-83 0 -139.5 26.5t-87 79.5t-42.5 117.5t-12 153.5zM117 377q0 -73 8.5 -126t31 -100t67.5 -71.5t113 -24.5h87v617h-76q-71 0 -115 -22q-64 -31 -90 -98t-26 -175z" />
<glyph unicode="&#x153;" horiz-adv-x="900" vert-adv-y="1200" d="M26 256q0 275 238 275q119 0 175 -73q7 -8 17 -26q9 16 25 36q56 63 171 63q226 0 226 -255q0 -21 -2 -47h-385v-7q1 -39 10 -75q12 -52 48 -77t107 -25q107 0 200 26v-46q-96 -32 -210 -32q-121 0 -175 65q-10 13 -17 26q-3 -3 -8 -10t-7 -10q-57 -71 -175 -71 q-120 0 -179 69t-59 194zM98 256q0 -213 167 -213q156 0 156 213v1v16q-3 105 -43 154q-42 53 -113 53q-167 0 -167 -224zM491 285q0 -5 1 -8h320q-2 107 -38.5 154.5t-121.5 47.5q-66 0 -101 -27t-49 -85q-8 -37 -11 -82z" />
<glyph unicode="&#x178;" horiz-adv-x="642" vert-adv-y="1200" d="M26 727h75l221 -346l220 346h75l-260 -405v-322h-70v322zM180 772v96h91v-96h-91zM381 772v96h91v-96h-91z" />
<glyph unicode="&#x2dc;" horiz-adv-x="500" vert-adv-y="1200" d="M112 813q20 64 84 64q30 0 71 -32q26 -19 43 -19q29 0 45 36l32 -13q-24 -64 -82 -64q-28 0 -63 28q-27 22 -49 22q-30 0 -50 -34z" />
<glyph unicode="&#x2000;" horiz-adv-x="451" vert-adv-y="0" />
<glyph unicode="&#x2001;" horiz-adv-x="903" vert-adv-y="0" />
<glyph unicode="&#x2002;" horiz-adv-x="451" vert-adv-y="0" />
<glyph unicode="&#x2003;" horiz-adv-x="903" vert-adv-y="0" />
<glyph unicode="&#x2004;" horiz-adv-x="301" vert-adv-y="0" />
<glyph unicode="&#x2005;" horiz-adv-x="225" vert-adv-y="0" />
<glyph unicode="&#x2006;" horiz-adv-x="150" vert-adv-y="0" />
<glyph unicode="&#x2007;" horiz-adv-x="150" vert-adv-y="0" />
<glyph unicode="&#x2008;" horiz-adv-x="112" vert-adv-y="0" />
<glyph unicode="&#x2009;" horiz-adv-x="180" vert-adv-y="0" />
<glyph unicode="&#x200a;" horiz-adv-x="50" vert-adv-y="0" />
<glyph unicode="&#x2010;" horiz-adv-x="530" vert-adv-y="1200" d="M70 343v55h390v-55h-390z" />
<glyph unicode="&#x2011;" horiz-adv-x="530" vert-adv-y="1200" d="M70 343v55h390v-55h-390z" />
<glyph unicode="&#x2012;" horiz-adv-x="530" vert-adv-y="1200" d="M70 343v55h390v-55h-390z" />
<glyph unicode="&#x2013;" horiz-adv-x="640" vert-adv-y="1200" d="M70 343v55h500v-55h-500z" />
<glyph unicode="&#x2014;" horiz-adv-x="864" vert-adv-y="1200" d="M3 343v54h858v-54h-858z" />
<glyph unicode="&#x2018;" horiz-adv-x="220" vert-adv-y="1200" d="M39 557l81 217h50l-52 -217h-79z" />
<glyph unicode="&#x2019;" horiz-adv-x="220" vert-adv-y="1200" d="M46 557l52 217h79l-81 -217h-50z" />
<glyph unicode="&#x201c;" horiz-adv-x="380" vert-adv-y="1200" d="M33 508l81 217h50l-52 -217h-79zM212 508l81 217h50l-52 -217h-79z" />
<glyph unicode="&#x201d;" horiz-adv-x="380" vert-adv-y="1200" d="M33 508l52 217h79l-81 -217h-50zM212 508l52 217h79l-81 -217h-50z" />
<glyph unicode="&#x2022;" horiz-adv-x="920" vert-adv-y="1200" d="M350 305q0 45 33 78t78 33t78 -33t33 -78t-33 -77.5t-78 -32.5t-78 32.5t-33 77.5z" />
<glyph unicode="&#x2026;" horiz-adv-x="920" vert-adv-y="1200" d="M101 274v104h103v-104h-103zM412 274v104h103v-104h-103zM709 274v104h103v-104h-103z" />
<glyph unicode="&#x202f;" horiz-adv-x="180" vert-adv-y="0" />
<glyph unicode="&#x2039;" horiz-adv-x="920" vert-adv-y="1200" d="M487 302l342 434l50 -38l-314 -396l314 -396l-49 -38z" />
<glyph unicode="&#x203a;" horiz-adv-x="920" vert-adv-y="1200" d="M44 -94l314 396l-314 396l50 38l342 -434l-343 -434z" />
<glyph unicode="&#x205f;" horiz-adv-x="225" vert-adv-y="0" />
<glyph unicode="&#x20ac;" horiz-adv-x="590" vert-adv-y="1200" d="M0 283v47h75v33v35h-75v47h78q4 37 12 72q51 217 264 217q109 0 205 -30v-46q-98 20 -186 20q-174 0 -214 -181q-6 -34 -8 -52h299v-47h-303v-35v-33h303v-47h-299q2 -20 8 -50q41 -182 215 -182q70 0 185 22v-48q-107 -30 -205 -30q-108 0 -173.5 58t-90.5 161 q-5 23 -11 69h-79z" />
<glyph unicode="&#x2122;" horiz-adv-x="900" vert-adv-y="1200" d="M25 744v45h332l-14 -45h-124v-325h-55v325h-139zM402 419v370h68l149 -302l151 302h68v-370h-49v305l-143 -290h-54l-141 290v-305h-49z" />
</font>
</defs>
</svg>
